<?xml version="1.0" encoding="UTF-8" standalone="no"?> 
<svg viewBox="0 0 512 512" xmlns="http://www.w3.org/2000/svg">
  <g fill="#80a878">
    <path d="M319.694 134.683c46.884-29.211 70.003-109.921-.334-131.17s-95.772 58.76-72.905 109.044l28.124 39.185 45.115-17.059zM377.316 192.305c29.211-46.884 109.921-70.003 131.17.334 21.248 70.337-58.76 95.773-109.044 72.905l-39.185-28.124 17.059-45.115z" />
  </g>
  <g fill="#a2d497">
    <path d="M274.582 159.469a7.727 7.727 0 01-7.4-9.963l29.678-98.237a7.727 7.727 0 0114.793 4.469l-29.678 98.237a7.727 7.727 0 01-7.393 5.494zM360.254 245.149a7.729 7.729 0 01-2.232-15.125l98.237-29.678a7.727 7.727 0 114.469 14.793l-98.237 29.678a7.75 7.75 0 01-2.237.332zM382.792 183.307c55.122-3.598 113.625-63.815 61.67-115.77s-112.171 6.549-115.77 61.67l6.277 47.822 47.823 6.278z" />
  </g>
  <path
        d="M334.969 184.755a7.726 7.726 0 01-5.464-13.189l72.565-72.565a7.727 7.727 0 0110.927 10.926l-72.565 72.565a7.7 7.7 0 01-5.463 2.263z"
        fill="#80a878"
      />
      <path
        d="M358.586 153.413C216.041 10.869-21.177 207.189 1.517 479.047c1.418 16.987 14.448 30.017 31.435 31.435C304.81 533.176 501.13 295.958 358.586 153.413z"
        fill="#faa330"
      />
      <path
        d="M358.586 153.413a185.91 185.91 0 00-16.35-14.555C455.447 282.41 263.752 501.424 2.047 479.577c-.161-.013-.319-.035-.479-.051 1.622 16.751 14.559 29.552 31.384 30.956C304.81 533.177 501.13 295.958 358.586 153.413z"
        fill="#e0922b"
      />
      <g fill="#3b484a">
        <path d="M165.379 254.026a7.726 7.726 0 01-5.464-13.189l9.079-9.079a7.727 7.727 0 0110.927 10.926l-9.079 9.079a7.708 7.708 0 01-5.463 2.263zM265.7 354.346a7.725 7.725 0 01-5.463-13.189l9.079-9.078a7.726 7.726 0 1110.925 10.926l-9.079 9.078a7.695 7.695 0 01-5.462 2.263zM227.091 315.983c-8.067 0-15.941-3.297-21.859-9.214-6.402-6.403-9.736-15.091-9.149-23.839a7.707 7.707 0 018.227-7.191 7.725 7.725 0 017.191 8.226c-.288 4.299 1.408 8.628 4.657 11.877 3.247 3.248 7.575 4.94 11.876 4.657 4.253-.297 7.941 2.934 8.227 7.191a7.726 7.726 0 01-7.191 8.226c-.661.045-1.321.067-1.979.067z" />
      </g>
</svg>
